<?xml version="1.0" encoding="UTF-8" standalone="no"?><!DOCTYPE svg PUBLIC "-//W3C//DTD SVG 1.1//EN" "http://www.w3.org/Graphics/SVG/1.1/DTD/svg11.dtd"><svg width="100%" height="100%" viewBox="0 0 485 489" version="1.1" xmlns="http://www.w3.org/2000/svg" xmlns:xlink="http://www.w3.org/1999/xlink" xml:space="preserve" xmlns:serif="http://www.serif.com/" style="fill-rule:evenodd;clip-rule:evenodd;stroke-linecap:round;stroke-linejoin:round;stroke-miterlimit:1.5;"><path d="M127.368,210.689l114.867,66.318l0,132.638l-114.867,66.319l-114.868,-66.319l0,-132.638l114.868,-66.318Z" style="fill:none;stroke:#84aff1;stroke-width:25px;"/><path d="M127.368,253.425l77.856,44.951l-0,89.901l-77.856,44.95l-77.857,-44.95l0,-89.901l77.857,-44.951Z" style="fill:url(#_Linear1);"/><path d="M242.235,55.237l77.856,44.95l0,89.901l-77.856,44.95l-77.856,-44.95l-0,-89.901l77.856,-44.95Z" style="fill:#3865ab;"/><path d="M357.103,253.425l77.856,44.951l0,89.901l-77.856,44.95l-77.857,-44.95l0,-89.901l77.857,-44.951Z" style="fill:#3865ab;"/><path d="M357.103,210.689l114.867,66.318l0,132.638l-114.867,66.319l-114.868,-66.319l0,-132.638l114.868,-66.318Z" style="fill:none;stroke:#84aff1;stroke-width:25px;"/><path d="M242.235,12.5l114.868,66.319l-0,132.637l-114.868,66.319l-114.867,-66.319l-0,-132.637l114.867,-66.319Z" style="fill:none;stroke:#84aff1;stroke-width:25px;"/><defs><linearGradient id="_Linear1" x1="0" y1="0" x2="1" y2="0" gradientUnits="userSpaceOnUse" gradientTransform="matrix(1.10097e-14,179.802,-179.802,1.10097e-14,127.368,253.425)"><stop offset="0" style="stop-color:#f2cc0c;stop-opacity:1"/><stop offset="1" style="stop-color:#ff9830;stop-opacity:1"/></linearGradient></defs></svg>